<svg xmlns="http://www.w3.org/2000/svg" viewBox="0 0 64 64" role="img" aria-label="Job Buddy Icon">
  <defs>
    <linearGradient id="jbGrad" x1="0" y1="0" x2="1" y2="1">
      <stop offset="0%" stop-color="#d95d39"/>
      <stop offset="100%" stop-color="#1e6f68"/>
    </linearGradient>
  </defs>
  <rect x="4" y="4" width="56" height="56" rx="16" fill="url(#jbGrad)"/>
  <path fill="#fff" d="M20 20h24a5 5 0 0 1 5 5v25a2 2 0 0 1-3.2 1.6L32 42l-13.8 9.6A2 2 0 0 1 15 50V25a5 5 0 0 1 5-5Z"/>
  <path fill="#fff" d="M23 14a2 2 0 0 1 2 2v6h-4v-6a2 2 0 0 1 2-2Zm18 0a2 2 0 0 1 2 2v6h-4v-6a2 2 0 0 1 2-2Z"/>
  <path fill="#d95d39" d="M22 29h20v4H22zm0 8h13v4H22z"/>
</svg>
